<?xml version="1.0" encoding="UTF-8"?>
<svg xmlns="http://www.w3.org/2000/svg" viewBox="0 0 1000 1000">
  <defs>
    <style>
      .cls-1 {
        letter-spacing: -.1em;
      }

      .cls-2 {
        letter-spacing: -.03em;
      }

      .cls-3 {
        letter-spacing: 0em;
      }

      .cls-4 {
        letter-spacing: -.02em;
      }

      .cls-5 {
        fill: #02243d;
      }

      .cls-6 {
        font-family: Balbek-PersonalUseOnly, 'Balbek Personal Use Only';
        font-size: 110.01px;
      }

      .cls-7 {
        letter-spacing: -.04em;
      }

      .cls-8 {
        letter-spacing: 0em;
      }
    </style>
  </defs>
  <g id="NOMBRE">
    <text class="cls-6" transform="translate(40.82 661.76)"><tspan x="0" y="0">IM</tspan><tspan class="cls-8" x="107.04" y="0">P</tspan><tspan x="162.59" y="0">O</tspan><tspan class="cls-4" x="222.66" y="0">R</tspan><tspan class="cls-1" x="277.77" y="0">T</tspan><tspan class="cls-7" x="324.53" y="0">A</tspan><tspan x="386.9" y="0">CION</tspan><tspan class="cls-3" x="590.42" y="0">E</tspan><tspan x="634.64" y="0">S M</tspan><tspan class="cls-2" x="800.09" y="0">B</tspan><tspan x="855.32" y="0">V</tspan></text>
  </g>
  <g id="ICONO">
    <path class="cls-5" d="M204.99,446.19c-1.86-17.6-16.03-48.68-36.08-28.53-15.82,15.9-15.54,55.17-9.71,75.43l-10.08,5.19c-9.66-27.63-11.92-91.92,19.11-106.97,15.33-7.43,25.14,1.13,36.73,10.32-10.46-31.06-39.85-40.95-58.17-9.11-15.02,26.09-11.3,52.86-9.78,81.59-26.93-17.37-35.83-54.73-33.18-85.29.88-10.19,7.69-37.68,12.41-46.48,2.31-4.3,7.61-6.33,8.67-10.99,2.15-9.53-6.13-6.59-10.5-13.52,0-4.28,26.19-6.55,31.44-7.79,48.36-11.45,90.89-50.92,139.86-67.01,64.08-21.06,203.19-23.62,269.91-11.58,56.51,10.2,103.58,53.09,152.68,76.84,23.38,11.31,75.66,14.07,104.03,19.79,32.32,6.53,71.39,15.65,99.22,33.66,14.95,9.67,20.24,12.66,19.74,31.57-.16,5.87-5.33,14.77,3.62,17.28,4.62-.8,5.07-13.75,8.46-10.47,6.14,11.97,9.79,23.4,10.58,37.01.83,14.31-2.61,28.13-1.55,42.32s9.31,30.98-9.93,39.8c-13.54,6.21-27.14,1.96-37.28,5-1.68.5-11.21,8.84-14.77,10.9-20.14,11.63-38.74,15.44-61.87,10.77-18.83-3.81-19.85-8.47-41.39-8.32-52.43.36-104.69,2.42-157.17,1.51-7.34-.13-14.3-2.51-22.59-1.58-17.51,1.98-27.81,10.64-49.63,8.87-5.23-.42-15.72-1.69-19.07-5.83,35.89.06,50.29-38.98,43.37-69.81-8.28-36.87-50.66-56.73-76.56-23.03-14.62,19.03-15.02,47.55-4.58,68.66-154.16-22.05-309.03,1.52-456.02,48.31,41.04-29.11,88.71-49.23,137.09-62.98,92.35-26.25,191.56-34.12,287.23-26.09,3.13-49.5,44-91.42,95.13-69.49-43.99-46.93-95.29-2.44-102.68,48.34-14.66-2.44-29.66-1.41-44.53-1.53-43.1-.35-86.51.19-129.66,6.27-28.47,4.01-56.25,11.45-84.02,17.89-.75-.54,1.51-1.93,1.51-2.25,0-8.95.91-20.12,0-28.69ZM691.21,317.07c-15.72-10.61-32.19-21.29-48.81-30.44-54.75-30.15-87.62-32.97-149.69-34.53-24.87-.63-50.1-.35-74.81,1.59,17.93,15.84,34.25,40.84,52.81,55.14,20.7,15.94,79.7,11.03,106.56,11.23,7.62.06,14.91.04,22.52,0,30.46-.15,61.42,2.13,91.42-2.97ZM446.59,338.21c-20.66-31.17-55.71-77.86-95.91-81.5-33.68-3.05-101.38,17.25-122.16,45.41-7.72,10.46-9.1,15.49,4.82,19.08,38.09,9.82,98.44,13.7,138.44,15.59,1.65.08,7.13,1.01,6.85-1.56-12.89-1.67-30.03-3.83-31.67-19.6,14.74-4.16,32.07-6.19,47.37-4.42,20.34,2.36,32.96,21.71,52.26,27ZM757.66,404.68c-33.78-6.1-67.03-14.9-100.9-20.67-18.57-3.17-37.23-7.33-56.15-6.5,14.35,20.81,36.64,36.51,61.6,41.82,12.23,2.6,50.06,6.7,61.37,4.88,3.78-.61,27.84-13.37,32.12-16.15,1.47-.95,2.7.17,1.95-3.38ZM692.72,465.08c-10.16-2.1-38.95,18.53-40.54,26.77-2.38,12.35,23.51,16.99,32.44,18.32,45.57,6.79,113.43,4.98,159.84,1.7,23.85-1.69,54.53-3.38,74.75-15.85-61.35,3.49-124.93,8.15-186.54,5.35-13.36-.61-29.9-1.95-42.64-5.68-2.59-.76-16.68-5.95-16.95-7.25l19.64-23.36Z"/>
  </g>
</svg>