<?xml version="1.0" encoding="UTF-8"?>
<svg xmlns="http://www.w3.org/2000/svg" viewBox="0 0 1000 200">
  <defs>
    <style>
      .cls-1, .cls-2 {
        stroke: #02243d;
        stroke-miterlimit: 10;
        stroke-width: 2px;
      }

      .cls-3 {
        fill: #02243d;
      }

      .cls-2 {
        fill: none;
      }
    </style>
  </defs>
  <g id="SLOGAN">
    <g id="SLOGAN-2" data-name="SLOGAN">
      <g>
        <path class="cls-3" d="M210.16,125.29v-1.03c0-1.1-.41-2.04-1.27-2.04-.96,0-1.39.84-1.39,1.68,0,3.72,7.25,1.9,7.25,8.76,0,4.01-2.14,5.79-6.07,5.79-3.7,0-5.74-1.39-5.74-5.28v-1.56h4.32v1.34c0,1.61.6,2.18,1.46,2.18.91,0,1.44-.79,1.44-1.82,0-3.72-6.98-1.85-6.98-8.52,0-3.79,1.85-5.88,5.62-5.88s5.52,1.63,5.52,5.26v1.13h-4.15Z"/>
        <path class="cls-3" d="M224.64,119.29v3.98h-3.98v3.22h3.43v3.84h-3.43v3.77h3.98v3.98h-8.45v-18.79h8.45Z"/>
        <path class="cls-3" d="M232.77,125.01c0-2.14-.34-2.78-1.2-2.78-1.34,0-1.51,1.37-1.51,6.46s.14,6.46,1.49,6.46c1.03,0,1.22-1.13,1.22-4.18h-1.27v-3.1h5.74v10.22h-3.5v-.31c-.5.41-1.22.67-2.09.67-4.99,0-6.05-2.76-6.05-9.77s1.49-9.77,6.1-9.77c4.06,0,5.54,2.33,5.54,5.95v1.18h-4.46v-1.03Z"/>
        <path class="cls-3" d="M243.14,132.86c0,1.82.5,2.28,1.32,2.28s1.34-.46,1.34-2.28v-13.56h4.46v12.31c0,5.26-2.11,6.84-5.81,6.84s-5.78-1.58-5.78-6.84v-12.31h4.46v13.56Z"/>
        <path class="cls-3" d="M256.17,138.09h-4.46v-18.79h6.17c3.43,0,4.7,2.09,4.7,4.99,0,2.5-.89,4.13-2.95,4.46v.07c2.18.22,3.14,1.7,3.14,4.2v5.06h-4.46v-4.85c0-1.7-.1-3.24-2.14-2.69v7.54ZM257.08,127.24c1.25,0,1.37-.89,1.37-2.23,0-1.54-.07-2.18-1.39-2.18h-.89v4.42h.91Z"/>
        <path class="cls-3" d="M268.67,119.29v18.79h-4.46v-18.79h4.46Z"/>
        <path class="cls-3" d="M276.62,119.29c5.16,0,5.4,4.46,5.4,9.38s-.29,9.41-5.45,9.41h-6.46v-18.79h6.5ZM275.47,134.56c1.73,0,2.09-.79,2.09-5.88s-.34-5.86-2.06-5.86h-.91v11.74h.89Z"/>
        <path class="cls-3" d="M291.91,119.29l3.84,18.79h-4.46l-.43-3.29h-3.55l-.46,3.29h-4.46l3.94-18.79h5.59ZM289.07,123.13l-1.25,7.82h2.5l-1.2-7.82h-.05Z"/>
        <path class="cls-3" d="M303.57,119.29c5.16,0,5.4,4.46,5.4,9.38s-.29,9.41-5.45,9.41h-6.46v-18.79h6.5ZM302.42,134.56c1.73,0,2.09-.79,2.09-5.88s-.34-5.86-2.06-5.86h-.91v11.74h.89Z"/>
        <path class="cls-3" d="M313.79,135.64c0,2.83-1.01,4.8-3.86,5.4v-1.66c.58-.31.89-.74.96-1.3h-.96v-3.91h3.86v1.46Z"/>
        <path class="cls-3" d="M326.37,122.22c-1.34,0-1.51,1.37-1.51,6.46s.14,6.46,1.49,6.46c1.1,0,1.22-1.06,1.22-4.61h4.46v1.18c0,5.26-2.74,6.75-5.59,6.75-4.99,0-6.05-2.76-6.05-9.77s1.49-9.77,6.1-9.77c4.06,0,5.54,2.33,5.54,5.95v1.18h-4.46v-1.03c0-2.14-.34-2.78-1.2-2.78Z"/>
        <path class="cls-3" d="M344.9,128.7c0,7.08-1.61,9.77-5.88,9.77s-5.78-2.66-5.78-9.77,1.61-9.77,5.86-9.77,5.81,2.66,5.81,9.77ZM340.43,128.7c0-5.66-.17-6.46-1.34-6.46s-1.39.96-1.39,6.46.19,6.46,1.37,6.46,1.37-.91,1.37-6.46Z"/>
        <path class="cls-3" d="M350.32,119.29l2.86,8.11h.05v-8.11h3.98v18.79h-3.98l-2.83-8.16h-.07v8.16h-3.98v-18.79h3.98Z"/>
        <path class="cls-3" d="M367.1,119.29v3.98h-3.98v3.22h3.6v3.84h-3.6v7.75h-4.46v-18.79h8.45Z"/>
        <path class="cls-3" d="M379.96,128.7c0,7.08-1.61,9.77-5.88,9.77s-5.78-2.66-5.78-9.77,1.61-9.77,5.86-9.77,5.81,2.66,5.81,9.77ZM375.5,128.7c0-5.66-.17-6.46-1.34-6.46s-1.39.96-1.39,6.46.19,6.46,1.37,6.46,1.37-.91,1.37-6.46Z"/>
        <path class="cls-3" d="M385.87,138.09h-4.46v-18.79h6.17c3.43,0,4.7,2.09,4.7,4.99,0,2.5-.89,4.13-2.95,4.46v.07c2.18.22,3.14,1.7,3.14,4.2v5.06h-4.46v-4.85c0-1.7-.1-3.24-2.14-2.69v7.54ZM386.78,127.24c1.25,0,1.37-.89,1.37-2.23,0-1.54-.07-2.18-1.39-2.18h-.89v4.42h.91Z"/>
        <path class="cls-3" d="M393.42,123.28v-3.98h11.16v3.98h-3.38v14.81h-4.46v-14.81h-3.31Z"/>
        <path class="cls-3" d="M411.3,119.29h4.46l1.68,6.55h.05l1.68-6.55h4.46l-3.98,11.4v7.39h-4.46v-7.39l-3.89-11.4Z"/>
        <path class="cls-3" d="M436.36,119.29c3.41,0,4.92,2.5,4.92,5.79,0,3.84-1.99,5.83-5.62,5.83h-.84v7.18h-4.46v-18.79h6ZM435.66,127.38c1.15,0,1.51-.7,1.51-2.28s-.36-2.28-1.51-2.28h-.84v4.56h.84Z"/>
        <path class="cls-3" d="M446.94,138.09h-4.46v-18.79h6.17c3.43,0,4.7,2.09,4.7,4.99,0,2.5-.89,4.13-2.95,4.46v.07c2.18.22,3.14,1.7,3.14,4.2v5.06h-4.46v-4.85c0-1.7-.1-3.24-2.14-2.69v7.54ZM447.86,127.24c1.25,0,1.37-.89,1.37-2.23,0-1.54-.07-2.18-1.39-2.18h-.89v4.42h.91Z"/>
        <path class="cls-3" d="M463.43,119.29v3.98h-3.98v3.22h3.43v3.84h-3.43v3.77h3.98v3.98h-8.45v-18.79h8.45Z"/>
        <path class="cls-3" d="M470.37,122.22c-1.34,0-1.51,1.37-1.51,6.46s.14,6.46,1.49,6.46c1.1,0,1.22-1.06,1.22-4.61h4.46v1.18c0,5.26-2.74,6.75-5.59,6.75-4.99,0-6.05-2.76-6.05-9.77s1.49-9.77,6.1-9.77c4.06,0,5.54,2.33,5.54,5.95v1.18h-4.46v-1.03c0-2.14-.34-2.78-1.2-2.78Z"/>
        <path class="cls-3" d="M481.94,119.29v18.79h-4.46v-18.79h4.46Z"/>
        <path class="cls-3" d="M495.04,128.7c0,7.08-1.61,9.77-5.88,9.77s-5.78-2.66-5.78-9.77,1.61-9.77,5.86-9.77,5.81,2.66,5.81,9.77ZM490.58,128.7c0-5.66-.17-6.46-1.34-6.46s-1.39.96-1.39,6.46.19,6.46,1.37,6.46,1.37-.91,1.37-6.46Z"/>
      </g>
      <line class="cls-2" x1="81.33" y1="127.18" x2="194.97" y2="127.18"/>
      <line class="cls-1" x1="500" y1="127.18" x2="618.35" y2="127.18"/>
    </g>
  </g>
  <g id="NOMBRE">
    <g>
      <path class="cls-3" d="M96.24,72.27l-8.75,32.59h-8.85l8.75-32.59h8.85Z"/>
      <path class="cls-3" d="M137.07,72.27l-8.71,32.59h-8.85l3.91-14.66-5.87,10.43h-9.36l-.28-10.38-3.91,14.62h-8.85l8.75-32.59h10.89l.75,18.39,10.57-18.39h10.94Z"/>
      <path class="cls-3" d="M170.08,78.74l-2.89,10.85c-1.12,4-3.44,6.42-7.82,6.42h-12.1l-2.37,8.85h-8.85l8.75-32.59h21c4.33,0,5.35,2.42,4.28,6.47ZM158.82,79.67h-7.17l-2.37,8.94h7.17c1.91,0,2.47-.42,3.12-2.98l.74-2.65c.65-2.56.75-3.31-1.49-3.31Z"/>
      <path class="cls-3" d="M205.28,76.74c-.14.47-.28.98-.37,1.49l-.84,2.93c-.09.51-.23.98-.37,1.49l-3.17,11.82c-.14.47-.28.98-.37,1.49l-.84,2.93c-.75,4-2.89,5.96-7.12,5.96h-17.18c-3.21,0-5.21-1.3-4.38-4.47.56-1.96,1.07-3.96,1.58-5.91l3.21-11.82c.14-.51.28-.98.37-1.49l.84-2.93c.75-4,2.84-5.96,7.12-5.96h17.18c3.21,0,5.17,1.3,4.33,4.47ZM192.38,92.99l2.37-8.89c.42-1.49.84-2.93,1.21-4.42h-11.22l-4.75,17.74h11.17c.42-1.49.79-2.98,1.21-4.42Z"/>
      <path class="cls-3" d="M238.71,78.74l-2.89,10.85c-.98,3.54-2.89,5.82-6.28,6.33l2.79,8.94h-8.61l-2.75-8.85h-5.07l-2.37,8.85h-8.85l8.75-32.59h21c4.33,0,5.35,2.42,4.28,6.47ZM217.9,88.61h7.17c1.91,0,2.47-.42,3.12-2.98l.74-2.65c.65-2.56.75-3.31-1.49-3.31h-7.17l-2.37,8.94Z"/>
      <path class="cls-3" d="M268.04,79.63h-8.05l-6.75,25.19h-8.85l6.75-25.19h-8.1l2-7.4h25l-2,7.4Z"/>
      <path class="cls-3" d="M293.83,72.27v32.59h-8.85v-6.84h-11.73l-3.68,6.84h-8.85l17.46-32.59h15.64ZM284.99,90.61v-10.94h-1.91l-5.87,10.94h7.77Z"/>
      <path class="cls-3" d="M313.81,79.67l-4.79,17.74h17.18l-1.96,7.45h-20.48c-3.21,0-5.21-1.3-4.38-4.47l6.38-23.7c.79-2.93,3.31-4.42,6.75-4.42h20.44l-1.96,7.4h-17.18Z"/>
      <path class="cls-3" d="M348.03,72.27l-8.75,32.59h-8.85l8.75-32.59h8.85Z"/>
      <path class="cls-3" d="M382.06,76.74c-.14.47-.28.98-.37,1.49l-.84,2.93c-.09.51-.23.98-.37,1.49l-3.17,11.82c-.14.47-.28.98-.37,1.49l-.84,2.93c-.75,4-2.89,5.96-7.12,5.96h-17.18c-3.21,0-5.21-1.3-4.38-4.47.56-1.96,1.07-3.96,1.58-5.91l3.21-11.82c.14-.51.28-.98.37-1.49l.84-2.93c.75-4,2.84-5.96,7.12-5.96h17.18c3.21,0,5.17,1.3,4.33,4.47ZM369.16,92.99l2.37-8.89c.42-1.49.84-2.93,1.21-4.42h-11.22l-4.75,17.74h11.17c.42-1.49.79-2.98,1.21-4.42Z"/>
      <path class="cls-3" d="M419.86,72.27l-8.71,32.59h-11.08l-4.94-18.11-4.84,18.11h-8.85l8.75-32.59h11.36l4.7,17.88,4.8-17.88h8.8Z"/>
      <path class="cls-3" d="M434.44,79.67l-1.21,4.61h13.18l-2,7.4h-13.17l-1.54,5.73h16.95l-2,7.45h-25.79l8.75-32.59h25.79l-2,7.4h-16.95Z"/>
      <path class="cls-3" d="M465.72,79.67l-1.35,5.17h11.17c4.1,0,4.98,2.05,4.33,4.42l-2.98,11.13c-.84,3.17-3.49,4.47-6.75,4.47h-19.18l2-7.45h16.48l1.4-5.17h-11.17c-4.1,0-4.98-2.1-4.38-4.47l2.98-11.08c.84-3.12,3.54-4.42,6.75-4.42h18.06l-2,7.4h-15.36Z"/>
      <path class="cls-3" d="M544.17,72.27l-8.71,32.59h-8.85l3.91-14.66-5.87,10.43h-9.36l-.28-10.38-3.91,14.62h-8.84l8.75-32.59h10.89l.75,18.39,10.57-18.39h10.94Z"/>
      <path class="cls-3" d="M576.34,78.14l-1.4,5.26c-.56,2.09-1.49,3.44-2.89,4.28,1.82.75,2.42,2.23,1.72,4.89l-1.58,5.82c-1.07,4.05-3.68,6.42-8.05,6.47h-21l8.75-32.59h19.69c4.38,0,5.87,1.77,4.75,5.87ZM563.21,91.41h-7.59l-1.63,6.01h7.17c1.54,0,2.42-.33,3.17-2.98.61-2.37.14-2.93-1.12-3.03ZM558.74,79.67l-1.3,4.89h6.19c1.58,0,2.47-.42,3.03-2.47s-.14-2.42-1.72-2.42h-6.19Z"/>
      <path class="cls-3" d="M615.45,72.27l-17.46,32.59h-15.64v-32.59h8.84v25.14h1.91l13.5-25.14h8.84Z"/>
    </g>
  </g>
  <g id="ICONO">
    <path class="cls-3" d="M665.78,117.33c-.62-5.9-5.37-16.32-12.09-9.56-5.3,5.33-5.21,18.49-3.25,25.28l-3.38,1.74c-3.24-9.26-4-30.8,6.4-35.85,5.14-2.49,8.43.38,12.31,3.46-3.51-10.41-13.35-13.72-19.5-3.05-5.03,8.74-3.79,17.71-3.28,27.34-9.03-5.82-12.01-18.34-11.12-28.58.3-3.42,2.58-12.63,4.16-15.58.77-1.44,2.55-2.12,2.91-3.68.72-3.19-2.05-2.21-3.52-4.53,0-1.44,8.78-2.19,10.54-2.61,16.21-3.84,30.46-17.06,46.87-22.46,21.48-7.06,68.1-7.92,90.45-3.88,18.94,3.42,34.71,17.79,51.17,25.75,7.84,3.79,25.36,4.71,34.86,6.63,10.83,2.19,23.92,5.25,33.25,11.28,5.01,3.24,6.78,4.24,6.61,10.58-.05,1.97-1.79,4.95,1.21,5.79,1.55-.27,1.7-4.61,2.84-3.51,2.06,4.01,3.28,7.84,3.55,12.4.28,4.8-.87,9.43-.52,14.18.37,4.98,3.12,10.38-3.33,13.34-4.54,2.08-9.1.66-12.49,1.68-.56.17-3.76,2.96-4.95,3.65-6.75,3.9-12.98,5.17-20.73,3.61-6.31-1.28-6.65-2.84-13.87-2.79-17.57.12-35.08.81-52.67.51-2.46-.04-4.79-.84-7.57-.53-5.87.66-9.32,3.56-16.63,2.97-1.75-.14-5.27-.57-6.39-1.95,12.03.02,16.85-13.06,14.54-23.4-2.77-12.36-16.98-19.01-25.66-7.72-4.9,6.38-5.03,15.93-1.53,23.01-51.66-7.39-103.57.51-152.83,16.19,13.75-9.75,29.73-16.5,45.94-21.11,30.95-8.8,64.2-11.44,96.26-8.74,1.05-16.59,14.75-30.64,31.88-23.29-14.74-15.73-31.94-.82-34.41,16.2-4.91-.82-9.94-.47-14.92-.51-14.44-.12-28.99.06-43.45,2.1-9.54,1.35-18.85,3.84-28.16,6-.25-.18.51-.65.51-.75,0-3,.3-6.74,0-9.62ZM828.73,74.05c-5.27-3.56-10.79-7.14-16.36-10.2-18.35-10.1-29.36-11.05-50.17-11.57-8.34-.21-16.79-.12-25.07.53,6.01,5.31,11.48,13.69,17.7,18.48,6.94,5.34,26.71,3.7,35.71,3.76,2.55.02,5,.01,7.55,0,10.21-.05,20.58.72,30.64-1ZM746.75,81.14c-6.92-10.45-18.67-26.09-32.14-27.31-11.29-1.02-33.97,5.78-40.94,15.22-2.59,3.5-3.05,5.19,1.61,6.39,12.76,3.29,32.99,4.59,46.4,5.22.55.03,2.39.34,2.3-.52-4.32-.56-10.06-1.28-10.61-6.57,4.94-1.39,10.75-2.07,15.88-1.48,6.82.79,11.05,7.28,17.51,9.05ZM851,103.41c-11.32-2.04-22.47-4.99-33.81-6.93-6.22-1.06-12.48-2.46-18.82-2.18,4.81,6.98,12.28,12.24,20.65,14.01,4.1.87,16.78,2.24,20.57,1.64,1.27-.2,9.33-4.48,10.76-5.41.49-.32.9.06.65-1.13ZM829.23,123.66c-3.41-.7-13.05,6.21-13.59,8.97-.8,4.14,7.88,5.69,10.87,6.14,15.27,2.28,38.01,1.67,53.57.57,7.99-.56,18.27-1.13,25.05-5.31-20.56,1.17-41.87,2.73-62.52,1.79-4.48-.2-10.02-.65-14.29-1.9-.87-.25-5.59-1.99-5.68-2.43l6.58-7.83Z"/>
  </g>
</svg>